# Blender 4.1.1
# www.blender.org
mtllib Half_Box.mtl
o Half_Box
v -38.750000 0.000001 17.500000
v 38.750000 0.000001 17.500000
v -38.750000 -0.000001 -17.500000
v 38.750000 -0.000001 -17.500000
v -38.750000 120.000000 17.499990
v 38.750000 120.000000 17.499990
v -38.750000 120.000000 -17.500010
v 38.750000 120.000000 -17.500010
vn -0.0000 -1.0000 -0.0000
vn -0.0000 1.0000 -0.0000
vn -0.0000 -0.0000 1.0000
vn 1.0000 -0.0000 -0.0000
vn -0.0000 -0.0000 -1.0000
vn -1.0000 -0.0000 -0.0000
vt 0.529837 0.230361
vt 0.529837 0.100134
vt 0.847061 0.100224
vt 0.847061 0.230361
vt 0.077476 0.768712
vt 0.387269 0.768712
vt 0.387269 0.906809
vt 0.077476 0.906704
vt 0.077476 0.230361
vt 0.387269 0.230361
vt 0.529837 0.768712
vt 0.387268 0.768712
vt 0.529837 0.230361
vt 0.847062 0.230361
vt 0.847061 0.768712
vt 0.529837 0.768712
vt 0.987723 0.230361
vt 0.987510 0.768712
s 1
usemtl Material.004
f 1/1/1 3/2/1 4/3/1 2/4/1
f 5/5/2 6/6/2 8/7/2 7/8/2
f 1/9/3 2/10/3 6/6/3 5/5/3
f 2/10/4 4/1/4 8/11/4 6/12/4
f 4/13/5 3/14/5 7/15/5 8/16/5
f 3/4/6 1/17/6 5/18/6 7/15/6
