# Blender 4.4.3
# www.blender.org
mtllib FSS.mtl
o FSS
v -77.500000 0.000001 17.500000
v 77.500000 0.000001 17.500000
v -77.500000 -0.000001 -17.500000
v 77.500000 -0.000001 -17.500000
v -77.500000 120.000000 17.499990
v 77.500000 120.000000 17.499990
v -77.500000 120.000000 -17.500010
v 77.500000 120.000000 -17.500010
vn -0.0000 -1.0000 -0.0000
vn -0.0000 1.0000 -0.0000
vn -0.0000 -0.0000 1.0000
vn 1.0000 -0.0000 -0.0000
vn -0.0000 -0.0000 -1.0000
vn -1.0000 -0.0000 -0.0000
vt 0.216451 0.136310
vt 0.216249 0.037497
vt 0.785763 0.037574
vt 0.785965 0.136388
vt 0.216249 0.476080
vt 0.785763 0.476160
vt 0.785763 0.572520
vt 0.216249 0.572444
vt 0.917031 0.912703
vt 0.785763 0.912780
vt 0.917031 0.572452
vt 0.216249 0.912703
vt 0.089560 0.136310
vt 0.089357 0.476080
s 1
usemtl Material.002
f 1/1/1 3/2/1 4/3/1 2/4/1
f 5/5/2 6/6/2 8/7/2 7/8/2
f 1/1/3 2/4/3 6/6/3 5/5/3
f 2/9/4 4/10/4 8/7/4 6/11/4
f 4/10/5 3/12/5 7/8/5 8/7/5
f 3/13/6 1/1/6 5/5/6 7/14/6
